<svg xmlns="http://www.w3.org/2000/svg" viewBox="0 0 32.078 24.059"><defs/><g fill="#fff" data-name="Raggruppa 2" transform="translate(-38 -942)"><path d="M46.077 964.048l-1.982 2.011A15.339 15.339 0 0138 954.029 15.332 15.332 0 0144.1 942l1.978 2.01a12.783 12.783 0 00-5.085 10.019 12.785 12.785 0 005.084 10.019zm.9-10.019a7.671 7.671 0 013.05-6.012l-1.977-2.007a10.224 10.224 0 00-4.063 8.019 10.224 10.224 0 004.063 8.019l1.979-2.008a7.667 7.667 0 01-3.05-6.011zM63.983 942L62 944.01a12.785 12.785 0 015.084 10.019A12.785 12.785 0 0162 964.048l1.982 2.012a15.339 15.339 0 006.095-12.03A15.335 15.335 0 0063.983 942zm-3.955 4.01l-1.98 2.007a7.669 7.669 0 013.05 6.012 7.667 7.667 0 01-3.05 6.012l1.979 2.008a10.224 10.224 0 004.063-8.019 10.22 10.22 0 00-4.062-8.02z"/><circle cx="4" cy="4" r="4" data-name="Ellisse 11" transform="translate(50.039 950.029)"/></g></svg>