<svg xmlns="http://www.w3.org/2000/svg" viewBox="0 0 313.001 167">
  <defs/>
  <defs/>
  <path d="M99.88 111.47c.185-.841.378-1.709.56-2.564q.656-3.082 1.3-6.181c.308-1.5.616-3 .894-4.511.305-1.662.583-3.326.863-4.988.28-1.614.56-3.228.8-4.847.165-1.068.28-2.144.44-3.217.165-1.2.347-2.41.5-3.617.126-.992.219-1.989.328-2.984.132-1.21.28-2.424.4-3.643.045-.44.073-.885.1-1.323.092-1.737.28-3.466.35-5.206s.109-3.418.21-5.122c.112-1.821.07-3.643.064-5.456 0-1.726-.084-3.455-.2-5.175s-.28-3.486-.516-5.217a51.77 51.77 0 00-2.575-11.006 37.155 37.155 0 00-1.961-4.281c-.331-.644-1.012-.922-1.564-1.325-1.46-1.062-2.973-2.059-4.4-3.166a5.454 5.454 0 01-1.555-2.413 13.7 13.7 0 01-.709-6.19 18.837 18.837 0 012.146-7.647 5.493 5.493 0 013.273-2.934 3.514 3.514 0 012.04.02c.63.188 1.264.359 1.894.538a3 3 0 002.738-.72 55.708 55.708 0 015.974-4.183A29.657 29.657 0 01128.027.049a26.455 26.455 0 015.94.961 31.382 31.382 0 016.19 2.466 42.141 42.141 0 015.677 3.713c.513.387 1.009.8 1.524 1.185a3.6 3.6 0 003.69.373 7.205 7.205 0 011.606-.432 3.488 3.488 0 012.242.521 6.187 6.187 0 012.292 2.471 19.488 19.488 0 012.015 6.321 20.106 20.106 0 01.16 4.452 8.9 8.9 0 01-1.847 5.161 5.524 5.524 0 01-1.07.947c-1.617 1.166-3.262 2.289-4.887 3.441a2.393 2.393 0 00-.642.944 32.2 32.2 0 00-2.8 8.157q-.516 2.4-.841 4.839c-.219 1.7-.418 3.4-.524 5.114-.076 1.208-.12 2.421-.216 3.626-.115 1.443 0 2.883-.1 4.318a14.113 14.113 0 00-.073 2.242c.154 1.715.017 3.433.1 5.145.078 1.552.132 3.107.213 4.66.087 1.631.182 3.267.305 4.9.129 1.7.28 3.39.409 5.086s.328 3.446.513 5.167q.294 2.752.619 5.506c.23 1.9.437 3.8.734 5.691.317 2.037.546 4.085.9 6.117.367 2.113.628 4.245.95 6.366a17.422 17.422 0 01.305 1.961zm27.045-91.183h-5.058c-.325 0-.653.064-.776.437a.782.782 0 00.233.827c.667.745 1.311 1.513 1.917 2.306 1.051 1.373 2.3 2.317 4.141 2.1a3.643 3.643 0 002.485-1.227c.883-1.051 1.72-2.135 2.595-3.191.21-.255.446-.462.263-.841a.786.786 0 00-.841-.429c-1.659.018-3.309.018-4.959.018zm-12.579-5.885a2.47 2.47 0 00-2.5-2.47 2.419 2.419 0 00-2.429 2.522 2.46464 2.46464 0 004.929-.052zm25.6 2.471a2.522 2.522 0 002.5-2.48 2.478 2.478 0 10-2.5 2.474zM159.897 111.466c-.308-2.121-.63-4.242-.925-6.366-.227-1.662-.409-3.326-.628-4.988-.23-1.743-.493-3.483-.712-5.229-.165-1.295-.28-2.595-.423-3.892-.162-1.4-.353-2.824-.5-4.237-.129-1.2-.21-2.4-.322-3.606-.132-1.418-.28-2.836-.4-4.256-.048-.56-.059-1.121-.092-1.681-.2-3.208-.143-6.425-.106-9.636.017-1.564.143-3.133.305-4.688a63.392 63.392 0 011.191-7.565 32.555 32.555 0 013.127-8.465 22.987 22.987 0 013.082-4.329 23.425 23.425 0 017.742-5.556 26.922 26.922 0 016.33-2.048c1.51-.28 3.021-.56 4.536-.787 1.121-.179 2.264-.219 3.4-.336a28.722 28.722 0 013.8-.092 14.017 14.017 0 015.217.919 7.846 7.846 0 012.839 2.1c1 1.149 2.054 2.242 3.138 3.32a21.917 21.917 0 006.725 4.3 42.292 42.292 0 007.106 2.3c1.028.255 2.071.454 3.107.675a2.522 2.522 0 011.961 2.382 4.48 4.48 0 01-.841 2.564 36.26 36.26 0 01-2.023 3.152 12.647 12.647 0 01-3.531 3.1c-1.74 1.076-3.643 1.88-5.38 2.95a51.036 51.036 0 00-5.206 3.6 34.189 34.189 0 00-3.116 2.712 11.065 11.065 0 00-2.752 5.447 18.77 18.77 0 00-.28 5.307 21.355 21.355 0 00.916 4.968 43.69 43.69 0 002.449 6.041 93.389 93.389 0 005.142 9.247c2.466 3.979 5.161 7.8 7.963 11.544.28.375.591.737.857 1.121zm13.592-52.154a1.98 1.98 0 002.006-2.5c-.129-.4-.238-.8-.356-1.208-.605-2.1-1.2-4.2-1.824-6.293a1.793 1.793 0 00-2.7-1.1 9.389 9.389 0 00-2.256 1.852 4.371 4.371 0 00-1.213 3.951 6.573 6.573 0 006.343 5.302zm23.181-12.463a2.467 2.467 0 00-4.934 0 2.469 2.469 0 104.934 0z" class="a"/>
  <g>
    <path d="M303.001 167h-293a10.011 10.011 0 01-10-10v-38a10.011 10.011 0 0110-10h293a10.011 10.011 0 0110 10v38a10.011 10.011 0 01-10 10zm-38.1-48.647v7.9h10.441V155.4h9.381v-29.15h10.494v-7.9zm-32.066 29.415h13.674l2.968 7.632h9.593l-14.787-37.047h-9.222L220.222 155.4h9.645l2.968-7.631zm-44.149-8.745l13.781 16.377h11.134l-16.01-19.027 15-18.02h-11.13l-12.773 15.37v-15.37h-9.387V155.4h9.382v-16.377zm-44.838 4.77h5.3l5.883 11.607h9.646l-6.576-12.932a11.01 11.01 0 005.088-4.346 13.206 13.206 0 001.8-7.049c0-4.08-1.239-7.254-3.683-9.435s-5.878-3.286-10.2-3.286h-16.639V155.4h9.382v-11.606zm-49.979-25.44V155.4h26.288v-7.9h-16.906v-6.94h12.35v-7.367h-12.35v-6.943h16.906v-7.9zm-40.6 0V155.4h26.29v-7.9H62.653v-6.94h12.348v-7.367H62.653v-6.943h16.906v-7.9zm-44.309 0V155.4h9.382v-11.077h6.943c4.326 0 7.813-1.15 10.362-3.419s3.842-5.522 3.842-9.672c0-4.044-1.3-7.236-3.868-9.487s-6.043-3.392-10.334-3.392zm235.217 22.207h-9.063l4.559-12.455 4.5 12.454zm-220.376-4.134h-5.456V126.25h5.456a8.016 8.016 0 014.452 1.059c1.055.7 1.59 2.024 1.59 3.922s-.544 3.254-1.616 4.028a7.476 7.476 0 01-4.426 1.167zm125.663-.53h-5.618v-9.646h5.618a7.759 7.759 0 014.372 1.033c1 .686 1.511 1.962 1.511 3.79a4.278 4.278 0 01-1.537 3.736 7.488 7.488 0 01-4.343 1.091z" class="a"/>
  </g>
</svg>