<svg xmlns="http://www.w3.org/2000/svg" width="116.178" height="141.988" viewBox="0 0 116.178 141.988">
  <g id="peerkat" transform="translate(-114.294 -61.491)">
    <path id="Path_254" data-name="Path 254" d="M301.321,484.808c-.563-3.872-1.151-7.744-1.688-11.621-.414-3.033-.747-6.071-1.146-9.1-.419-3.181-.9-6.358-1.3-9.544-.3-2.363-.511-4.736-.772-7.1-.3-2.557-.644-5.156-.921-7.734-.235-2.189-.384-4.389-.588-6.583-.24-2.588-.511-5.176-.737-7.769-.087-1.023-.107-2.046-.169-3.069-.363-5.857-.261-11.728-.194-17.59.031-2.854.261-5.718.558-8.557a115.7,115.7,0,0,1,2.174-13.81,59.426,59.426,0,0,1,5.708-15.452,41.962,41.962,0,0,1,5.626-7.9,42.762,42.762,0,0,1,14.132-10.143,49.141,49.141,0,0,1,11.554-3.739c2.757-.511,5.514-1.023,8.281-1.437,2.046-.327,4.133-.4,6.2-.614a52.432,52.432,0,0,1,6.941-.169,25.587,25.587,0,0,1,9.524,1.678,14.321,14.321,0,0,1,5.181,3.841c1.831,2.1,3.749,4.092,5.729,6.061a40.007,40.007,0,0,0,12.276,7.846,77.2,77.2,0,0,0,12.971,4.194c1.877.466,3.78.829,5.672,1.233a4.6,4.6,0,0,1,3.58,4.348,8.177,8.177,0,0,1-1.534,4.68,66.183,66.183,0,0,1-3.693,5.754,23.088,23.088,0,0,1-6.445,5.652c-3.176,1.964-6.649,3.432-9.821,5.386a93.161,93.161,0,0,0-9.5,6.573,62.417,62.417,0,0,0-5.688,4.951,20.2,20.2,0,0,0-5.023,9.943,34.265,34.265,0,0,0-.511,9.687,38.985,38.985,0,0,0,1.673,9.069,79.744,79.744,0,0,0,4.47,11.028,170.474,170.474,0,0,0,9.386,16.879c4.5,7.263,9.421,14.235,14.536,21.073.511.685,1.079,1.345,1.565,2.046Zm24.812-95.2a3.615,3.615,0,0,0,3.662-4.562c-.235-.731-.435-1.468-.65-2.2-1.1-3.831-2.189-7.672-3.33-11.488a3.273,3.273,0,0,0-4.92-2.01,17.137,17.137,0,0,0-4.117,3.381,7.979,7.979,0,0,0-2.215,7.212C315.821,385.774,320.322,389.222,326.133,389.605Zm42.315-22.751a4.5,4.5,0,0,0-9.007,0,4.506,4.506,0,1,0,9.007,0Z" transform="translate(-179.447 -281.329)" fill="#1d1d1b"/>
  </g>
</svg>
