<svg id="Layer_1" data-name="Layer 1" xmlns="http://www.w3.org/2000/svg" viewBox="0 0 122.88 125.17"><defs><style lang="scss">.cls-1{fill:none;}.cls-2{fill:#eedd07;}.cls-3{font-size:10px;font-family:MyriadPro-Regular, Myriad Pro;}</style></defs><circle cx="61.44" cy="61.44" r="61.44"/><path class="cls-1" d="M0,0" transform="translate(-1.06 -0.44)"/><path class="cls-2" d="M95.12,57.25l7.22-23.42H73.78L79,25.72,66.27,33.83H32.92L25.77,57.25h24.7L46.83,69.38,31.37,91.86l11.17-8.47-.39,1.47-5.1,15.19H64.36l9.82-40.67L77,57.25ZM62.5,5.32A56.56,56.56,0,1,1,5.93,61.87,56.63,56.63,0,0,1,62.5,5.32" transform="translate(-1.06 -0.44)"/><path d="M36.63,50.49,56.14,38,35.22,38,30.38,53.67l13.92.08ZM61,95.48l7.28-27.8L46.63,84.53l-3.51,11ZM42.74,80,75.25,55.3l-14.37-6,.89-1.42,8.57-13.45.07-.12L45.78,50l12.89,6.74ZM92.6,53.75,97.72,38H74.91l-6.3,10.28L83,53.68Zm9.74-19.92L95.12,57.25H77l-2.81,2.13-9.82,40.67H37.05l5.1-15.18.39-1.48L31.37,91.86,46.83,69.38l3.64-12.13H25.77l7.15-23.42H66.27L79,25.72l-5.17,8.11h28.56" transform="translate(-1.06 -0.44)"/><path class="cls-2" d="M97.72,38,92.6,53.75,83,53.68,68.61,48.26,74.91,38H97.72" transform="translate(-1.06 -0.44)"/><path class="cls-2" d="M75.25,55.3,42.74,80,58.67,56.78,45.78,50,70.41,34.27l-.07.13L61.77,47.84l-.89,1.42,14.37,6m-7,12.38L61,95.48H43.12l3.51-11L68.26,67.68" transform="translate(-1.06 -0.44)"/><path class="cls-2" d="M56.14,38,36.63,50.49l7.67,3.27-13.92-.09L35.22,38,56.14,38" transform="translate(-1.06 -0.44)"/><text class="cls-3" transform="translate(97.81 122.67)">TM</text></svg>