<svg xmlns="http://www.w3.org/2000/svg" version="1.0" viewBox="0 0 1280 1280">
  <defs/>
  <path d="M594 37.1c-164.2 12-316.7 90.3-422.8 216.9C58.9 388.1 9.9 564.5 36.6 738c9.2 59.9 27.3 117.8 53.9 172.7 63.3 130.7 173.1 235.7 307 293.6 199.6 86.1 432.5 58.6 606-71.8 23.5-17.6 41.6-33.6 65.5-57.5 32.3-32.2 54.5-59.1 77.5-94 89.8-135.9 121.4-300.5 88.5-460.6-37.5-182.1-158.9-339-326.5-421.8-70-34.6-142.8-54.7-222.1-61.1-20.1-1.6-72.3-1.8-92.4-.4zm88.7 95.4c97.3 8 192.3 45 270.3 105.4 149.8 115.9 223.7 304.2 192.9 491.1-21.4 129.8-93 247.5-198.9 327.1-26.7 20-50.4 34.5-81.5 49.9-58.2 28.6-114.4 44.4-182 51.2-19.8 1.9-73.9 1.6-95-.6-96.3-10-182.4-43.6-259-101.1-21.1-15.8-35.3-28.3-55-48-117.8-118-170.4-283.2-142.9-448.5 13.4-80.5 46-156.4 95.8-223 27.3-36.6 65.7-74.8 102.9-102.7C432.2 157 554.5 122 682.7 132.5z"/>
  <path d="M613.5 201.7c-77.7 4.8-152.3 29.3-216.5 71.1-76.8 50-136.9 123-169.8 206.3-28.3 71.6-38.1 147.3-28.6 221.4 4.7 37 13.5 70.8 27.5 106.5 12.2 31 24.9 55.3 44.4 84.5 55.1 82.7 135.3 143.3 230.9 174.6 79.3 26 166.5 28.8 247.1 7.9C922 1029.1 1051 885.9 1077 709.5c3.8-25.4 4.5-35.8 4.4-66 0-22-.5-34-1.8-45-6.4-55.4-19.9-101.7-43.7-150C966 306.2 825.5 212.5 666.5 202c-13.8-.9-41-1.1-53-.3zm32.7 168.4c12.8 3.4 23.7 6.4 24.1 6.8.4.5-3.8 18.2-9.4 39.5-5.6 21.3-10 38.8-9.8 39 .6.4 38.4 9.5 38.6 9.2.1-.1 4.7-17.5 10.3-38.6 5.6-21.2 10.3-38.6 10.4-38.7.4-.4 47.1 12 47.9 12.7.4.4-3.7 17.7-9.2 38.6-5.5 20.8-10.1 38.7-10.3 39.7-.2 1.4 1.9 2.6 10.7 6.1 51.4 20.2 79.8 46.8 85.6 80.2 1.8 10.2.6 28.9-2.5 40.8-8 30.8-26.3 49.8-56.3 58.7l-4.2 1.2 5.6 3.4c18.3 11 30.9 23.5 37.8 37.6 6.4 13.1 7.9 19.7 7.9 34.7 0 39.5-22.1 82.7-51.2 100-17.1 10.1-32.2 13.9-58.4 14.7-20.6.6-32.8-.3-56.6-4.3-8.5-1.4-15.5-2.4-15.7-2.2-.2.2-5 17.9-10.6 39.3-5.6 21.5-10.6 39.4-11 39.9-.6.6-47.4-10.7-48.6-11.8-.1-.1 4.5-17.9 10.2-39.6 5.7-21.7 10.1-39.8 9.7-40.2-.4-.4-5.2-1.8-10.7-3.2-5.5-1.4-13.8-3.7-18.5-5-4.6-1.4-8.5-2.4-8.7-2.3-.1.2-4.8 17.8-10.4 39.2-5.6 21.5-10.5 39.4-10.9 39.8-.8.9-47-10.8-48.1-12.1-.3-.4 4.1-18.3 9.8-39.7C499.3 832 504 814 504 813.4c0-1.3-.3-1.4-57-16.4-24.2-6.4-40.4-11.2-40.3-11.9.2-.6 5.7-13.2 12.3-27.9l12.1-26.9 17.7 4.9c20.5 5.7 27.1 6.3 32.5 2.9 2-1.2 4.5-3.7 5.7-5.6 2.5-4.1 60-222 60-227.5 0-10-7.5-19.8-18.1-23.7-3-1.2-13.2-4-22.7-6.4-9.5-2.4-17.1-4.9-16.9-5.4.2-.6 3.2-12.1 6.7-25.8 4.7-18 6.8-24.7 7.9-24.7.8 0 15.2 3.6 32 8.1 52.1 13.8 64.5 16.9 65.2 16.1.4-.4 5.3-18.4 10.9-40 5.7-21.5 10.5-39.2 10.6-39.2.2 0 10.8 2.7 23.6 6.1z"/>
  <path d="M636.4 514.4c-.2.6-5.8 21.8-12.4 47.1-6.6 25.3-12.3 46.7-12.5 47.5-.9 2.9 40.3 12.9 61.5 15.1 37.4 3.7 59.3-7.9 65.6-34.8 6.6-28.1-13.4-50-59-64.8-18.8-6-42.6-11.7-43.2-10.1zM598 660.2c0 .2-6.3 24.1-14 53.3-7.6 29.1-13.6 53.3-13.2 53.6 1 1 29 8.5 42.4 11.4 19.8 4.2 31.7 5.7 47.3 5.8 33.5.3 51.5-9.3 59.6-31.9 3-8.2 3.1-22.8.2-30-7.7-19.5-28.4-34.6-64.3-46.9-13.8-4.7-58-16.3-58-15.3z"/>
</svg>