<svg xmlns="http://www.w3.org/2000/svg" viewBox="0 0 932.013 932.013">
  <defs/>
  <path d="M402.182 94.485c-7.859-23.203-29.8-39.911-55.658-39.911-32.456 0-58.767 26.311-58.767 58.767 0 1.819.095 3.615.257 5.392-8.135-3.469-17.087-5.392-26.49-5.392-37.335 0-67.601 30.266-67.601 67.601 0 8.15 1.444 15.963 4.087 23.198-26.912 4.324-47.473 27.645-47.473 55.775 0 1.57.081 3.12.207 4.658h632.731c.247-1.555.384-3.109.384-4.658 0-25.102-18.676-45.828-42.888-49.077.129-1.459.207-2.933.207-4.425 0-20.22-12.121-37.598-29.487-45.296.84-4.363 1.294-8.863 1.294-13.471 0-39.143-31.732-70.874-70.874-70.874-1.137 0-2.266.033-3.39.086C627.092 32.625 586.834 0 538.951 0c-52.392 0-95.657 39.056-102.279 89.642-3.071-.495-6.218-.763-9.43-.763-8.966 0-17.457 2.016-25.06 5.606zM361.651 932.013h74.142v-632.44H311.128l1.346 16.844zM496.22 932.013h74.142l49.177-615.596 1.346-16.844H496.22v16.844zM681.312 299.573l-1.346 16.844-49.178 615.596h78.7l93.043-632.44h-40.205zM166.806 299.573h-37.324l95.428 632.44h76.315l-49.178-615.596-1.346-16.844z"/>
</svg>