<svg id="Layer_1" data-name="Layer 1" xmlns="http://www.w3.org/2000/svg" viewBox="0 0 500 500"><defs><style>.cls-1,.cls-2{fill:none;}.cls-1,.cls-2,.cls-3{stroke:#16dbdb;stroke-width:2px;}.cls-1{stroke-miterlimit:10;}.cls-2,.cls-3{stroke-linecap:round;stroke-linejoin:round;}.cls-3{fill:#224948;}</style></defs><path class="cls-1" d="M240.84,172.5H365a35.48,35.48,0,0,0-33.45-47.36c-.85,0-1.7,0-2.54.1a35.5,35.5,0,0,0-50.67-30.68,35.5,35.5,0,0,0-69.49-.41A35.48,35.48,0,0,0,159,125.24c-.84,0-1.69-.1-2.54-.1A35.5,35.5,0,0,0,123,172.5Z"/><path class="cls-2" d="M371.59,172.36h-255l33.93,226h0a.49.49,0,0,0,0,.12,13,13,0,0,0,13,13l.5,0v0H324.68a13,13,0,0,0,13-13v-.12h0Z"/><line class="cls-3" x1="201" y1="172.38" x2="216" y2="406"/><line class="cls-3" x1="286" y1="172.38" x2="271" y2="406"/></svg>