<svg xmlns="http://www.w3.org/2000/svg" width="45.652" height="45.649" viewBox="0 0 45.652 45.649"><defs><style>.a{fill:none;stroke:#16dbdb;stroke-linecap:round;stroke-linejoin:round;stroke-width:2px;}</style></defs><path class="a" d="M55.806,42.212A2.81,2.81,0,0,0,52.8,44.267l-1.26,4.8c15.987.467,26.8,11.128,27.478,27.01l4.851-1.344a2.811,2.811,0,0,0,2.01-3.054A33.86,33.86,0,0,0,55.806,42.212Zm-4.982,9.543-8.5,32.334a1.382,1.382,0,0,0,1.7,1.68l32.289-8.949c-.368-14.907-10.487-24.893-25.49-25.06Zm2.352,25.891A2.729,2.729,0,1,1,55.9,74.916,2.729,2.729,0,0,1,53.175,77.646ZM57.27,64.693a2.729,2.729,0,1,1,1.929-.8,2.729,2.729,0,0,1-1.929.8Zm8.862,8.862a2.729,2.729,0,1,1,1.929-.8,2.729,2.729,0,0,1-1.929.8Z" transform="translate(-41.263 -41.183)"/></svg>