<svg xmlns="http://www.w3.org/2000/svg" viewBox="0 0 57.5 30.24">
  <path  d="M42.37 1.5H15.14a13.62 13.62 0 109.72 23.15h7.78A13.62 13.62 0 1042.37 1.5zM22.63 16.13a1.02 1.02 0 01-1.02 1.03h-4.43v4.42a1.02 1.02 0 01-1.02 1.02h-2.04a1.02 1.02 0 01-1.02-1.02v-4.42H8.66a1.02 1.02 0 01-1.02-1.03V14.1a1.02 1.02 0 011.02-1.02h4.43V8.64a1.02 1.02 0 011.02-1.02h2.04a1.02 1.02 0 011.02 1.02v4.43h4.42a1.02 1.02 0 011.03 1.02h0zM41 22.6a3.4 3.4 0 113.4-3.4 3.4 3.4 0 01-3.4 3.4zm5.44-8.17a3.4 3.4 0 113.4-3.4 3.4 3.4 0 01-3.4 3.4z"/>
</svg>