<svg xmlns="http://www.w3.org/2000/svg" width="34.902" height="45.692" viewBox="0 0 34.902 45.692"><defs><style>.a{fill:none;stroke:#16dbdb;stroke-linecap:round;stroke-linejoin:round;stroke-width:2px;}</style></defs><g transform="translate(-106.085 -61.5)"><circle class="a" cx="5.668" cy="5.668" r="5.668" transform="translate(117.839 62.5)"/><path class="a" d="M177.76,222.8l6-2.144s1.559-6.137,2.269-6.139" transform="translate(-62.538 -134.526)"/><path class="a" d="M258.685,222.783l-6-2.144s-1.559-6.137-2.269-6.139" transform="translate(-126.836 -134.508)"/><path class="a" d="M114.963,326s-6.55,6.836-7.241,6.836-1.966,6.34,3.62,6.34h12.125" transform="translate(0 -233.177)"/><path class="a" d="M259.094,326s6.55,6.836,7.241,6.836,1.966,6.341-3.615,6.341H250.59" transform="translate(-126.987 -233.177)"/><path class="a" d="M188.815,383.865a2.651,2.651,0,0,1-.806-5.091l10.817-2.274" transform="translate(-70.171 -277.865)"/><path class="a" d="M141.062,189.351a4.811,4.811,0,0,0-2.992-3.107l-8.814-1.174h-.037l-8.814,1.174a4.811,4.811,0,0,0-2.992,3.107c-1.036,2.647-3.913,10.242-3.913,10.242a3.192,3.192,0,0,0,3.674,2.417c3.036-.33,11.623-3.053,12.063-3.191.434.138,9.027,2.861,12.063,3.191a3.188,3.188,0,0,0,3.674-2.417S142.1,192,141.062,189.351Z" transform="translate(-5.673 -108.465)"/></g></svg>