<svg xmlns="http://www.w3.org/2000/svg"
viewBox="0 0 20.227 25.717">
  <path 
  d="M1.408.134A1.953,1.953,0,0,0,.082,1.5C0,1.861,0,3.506,0,7.741v5.767l.226.977c.689,2.642,1.4,3.783,3.886,6.076l.514.483v1.912a14.269,14.269,0,0,0,.1,2.2c.206.576-.206.555,7.71.555h7.2a.792.792,0,0,0,.483-.1c.144-.123.1-.411.1-.411V22.668c0-2.735,0-3.084-.514-4.05A5.664,5.664,0,0,0,17.651,16.5a5.14,5.14,0,0,0-2.6-.637,4.955,4.955,0,0,1-1.172,0c-.175-.093.493-.319.493-.319a5.407,5.407,0,0,0,2.221-2.868,3.937,3.937,0,0,0,.247-1.686,5.212,5.212,0,0,0-.658-2.765A6.168,6.168,0,0,0,14,6.024a4.739,4.739,0,0,0-5.52.9,5.243,5.243,0,0,0-1.624,3.906,5.932,5.932,0,0,0,.658,2.776,5.962,5.962,0,0,0,1.871,1.953s.555.2.5.278a6.168,6.168,0,0,1-2.3,0,7.772,7.772,0,0,1-2.92-2.478c-.555-.894-.555-.977-.555-6.775-.1-5.325-.1-5.325-.3-5.644A2.231,2.231,0,0,0,2.57.082,1.614,1.614,0,0,0,1.408.134Z"/>
</svg>
