<svg xmlns="http://www.w3.org/2000/svg" viewBox="0 0 33 25">
<path d="M2.2 2.679h6.286c.45-.308.933-2.143 1.835-2.679h12.308c.806.477 1.422 2.452 1.9 2.679H30.8A2.216 2.216 0 0133 4.911v17.857A2.216 2.216 0 0130.8 25H2.2A2.216 2.216 0 010 22.768V4.911a2.216 2.216 0 012.2-2.232z"/>
<path d="M10.917 1.5c-.177.264-.383.677-.499.908-.312.625-.581 1.164-1.086 1.51l-.382.26H2.2c-.386 0-.7.329-.7.733v17.857c0 .404.314.732.7.732h28.6c.386 0 .7-.328.7-.732V4.91c0-.404-.314-.732-.7-.732h-6.603l-.303-.143c-.664-.312-1.012-.96-1.415-1.71-.12-.224-.311-.58-.473-.826H10.917M10.321 0h12.308c.806.477 1.421 2.452 1.903 2.679H30.8c1.215 0 2.2.999 2.2 2.232v17.857C33 24 32.015 25 30.8 25H2.2C.985 25 0 24 0 22.768V4.91c0-1.233.985-2.232 2.2-2.232h6.286C8.936 2.37 9.42.536 10.321 0z"/>
<path d="M7.67 14.032l2.6-2.662 2.692 2.662" />
<path d="M21.1 18.544c-1.065 1.218-2.751 1.405-4.63 1.405a6.272 6.272 0 01-6.27-6.274v-1.77" />
<path d="M25.411 13.262l-2.6 2.662-2.693-2.662" />
<path d="M11.988 8.748c1.065-1.218 2.751-1.405 4.63-1.405a6.272 6.272 0 016.27 6.276v1.767" />
</svg>