<svg xmlns="http://www.w3.org/2000/svg" width="53.495" height="60.68" viewBox="0 0 53.495 60.68"><defs><style>.a{fill:#16dbdb;stroke:#000;stroke-width:2px;}</style></defs><path class="a" d="M99.494,74.332A3.668,3.668,0,1,0,103.162,78,3.668,3.668,0,0,0,99.494,74.332Zm24.546-11c-1.246-2.234-4.643-5.816-13.325-4.8-2.464-5.874-6.218-9.871-11.221-9.871s-8.755,4-11.221,9.871c-8.684-1-12.08,2.563-13.326,4.8C73.07,66.7,73.227,71.711,77.826,78c-4.6,6.289-4.756,11.3-2.88,14.67,3.34,6,11.651,5,13.326,4.8,2.464,5.874,6.218,9.871,11.221,9.871s8.755-4,11.221-9.871c1.677.2,9.988,1.2,13.326-4.8,1.877-3.366,1.72-8.381-2.879-14.67,4.6-6.289,4.756-11.3,2.879-14.67ZM81.08,89c-.458-.831-.013-2.836,1.72-5.53.788.746,1.62,1.476,2.508,2.193.187,1.575.459,3.108.774,4.6C83.259,90.363,81.51,89.761,81.08,89Zm4.226-18.667c-.887.717-1.72,1.447-2.508,2.186C81.067,69.839,80.623,67.828,81.08,67c.388-.7,1.878-1.319,4.343-1.319.2,0,.444.044.659.044-.329,1.533-.587,3.066-.774,4.612ZM99.494,56c1.089,0,2.55,1.546,3.884,4.268-1.29.437-2.579.917-3.884,1.476-1.3-.56-2.594-1.046-3.884-1.476C96.944,57.542,98.405,56,99.494,56Zm0,44.009c-1.089,0-2.55-1.546-3.884-4.268,1.29-.43,2.579-.917,3.884-1.476,1.3.56,2.594,1.046,3.884,1.476C102.044,98.458,100.582,100,99.494,100Zm0-12.835A9.169,9.169,0,1,1,108.663,78a9.169,9.169,0,0,1-9.169,9.169ZM117.906,89c-.415.759-2.177,1.361-5,1.261.315-1.489.583-3.022.774-4.6.887-.717,1.72-1.447,2.506-2.193C117.921,86.161,118.365,88.171,117.906,89Zm-1.72-16.467c-.787-.746-1.619-1.476-2.506-2.186-.187-1.546-.444-3.079-.774-4.612.214,0,.458-.044.659-.044,2.464,0,3.955.616,4.341,1.319.459.816.015,2.827-1.72,5.516Z" transform="translate(-72.747 -47.66)"/></svg>