<svg xmlns="http://www.w3.org/2000/svg" width="53.398" height="53.26" viewBox="0 0 53.398 53.26"><defs><style>.a{fill:#16dbdb;stroke:#000;}</style></defs><path class="a" d="M76.853,43.929A26.136,26.136,0,1,0,60.079,76.848,26.122,26.122,0,0,0,76.853,43.929ZM69,64.338l-5.5.674L58.9,58.6l2.571-7.928,7.491-2.332,4.1,3.836a20.96,20.96,0,0,1-2.282,9.4,20.484,20.484,0,0,1-1.77,2.761Zm0-24.8-1.1,5.6-7.45,2.321-6.762-4.9V34.774l4.992-2.761A21.006,21.006,0,0,1,69,39.536ZM45.364,32.023l4.963,2.75v7.775l-6.762,4.9-7.439-2.318L35.062,39.6a20.842,20.842,0,0,1,10.3-7.578ZM40.528,65.017l-5.6-.684a21.088,21.088,0,0,1-3.983-12.148l4.11-3.836,7.491,2.339,2.565,7.829-4.583,6.5Zm5.078,7.059-2.36-5.068,4.593-6.5h8.277l4.663,6.5-2.36,5.063a21.006,21.006,0,0,1-12.818,0Z" transform="translate(-25.31 -25.37)"/></svg>