<svg xmlns="http://www.w3.org/2000/svg" viewBox="0 0 62.26 59.44">
 <path d="M19.1 24.3l8.5-5.5h-9.1l-2.1 6.9h6zM29.8 44L33 31.8l-9.5 7.4L22 44zm-8-6.8L36 26.4l-6.3-2.6.4-.6 3.8-6L23 24.1l5.7 3zm21.8-11.5l2.2-6.9h-10l-2.7 4.5 6.3 2.4zM48 17l-3.2 10.3h-8l-1.2.9L31.3 46H19.4l2.2-6.7.2-.6-4.9 3.7 6.8-9.8 1.6-5.3H14.4l3-10.3h14.7l5.6-3.5-2.3 3.5h12.5"/>
 <path d="M45.9 18.8l-2.3 7h-4.2l-6.3-2.5L36 19h10" />
 <path d="M36 26.4L21.8 37.2l7-10.2-5.7-3L34 17.3l-3.8 6-.3.6 6.2 2.6m-3 5.4L29.8 44H22l1.5-4.8 9.5-7.4"/>
 <path d="M27.6 18.8l-8.5 5.5 3.4 1.4h-6.1l2.1-6.8h9.2" />
 </svg>