<svg xmlns="http://www.w3.org/2000/svg" width="45.768" height="46.782" viewBox="0 0 45.768 46.782"><defs><style>.a,.c{fill:none;}.a,.b,.c{stroke:#16dbdb;stroke-linecap:round;stroke-linejoin:round;}.a,.b{stroke-width:2px;}.b{fill:#16dbdb;}</style></defs><g transform="translate(-52.84 -61)"><path class="a" d="M67.292,176.224a3.127,3.127,0,0,1,2.781-1.724h0a3.127,3.127,0,0,1,2.781,1.724c.194.472,1.292,2.98,2.784,6.374-3.952,8.991-10.67,24.2-10.67,24.2H53.84S66.584,177.948,67.292,176.224Z" transform="translate(0 -100.013)"/><path class="a" d="M171.23,176.224a3.13,3.13,0,0,0-2.782-1.724h0a3.127,3.127,0,0,0-2.781,1.724c-.7,1.709-13.447,30.571-13.447,30.571h32.462S171.938,177.948,171.23,176.224Z" transform="translate(-87.073 -100.013)"/><path class="b" d="M290.726,67.58H281.42v3.266h7.192Z" transform="translate(-201.425 -5.381)"/><path class="b" d="M288.623,96.49H281.43v3.266h9.307Z" transform="translate(-201.433 -30.969)"/><rect class="c" width="2.299" height="13.102" transform="translate(80.234 61.5)"/><path class="a" d="M239.5,259.5l3.1,3.793,3.1-3.347" transform="translate(-164.322 -175.244)"/><path class="a" d="M300.791,259.2l-2.935,3.793-2.935-3.347" transform="translate(-213.373 -174.979)"/><path class="a" d="M147.21,250.35l3.1,3.793,3.1-3.347,2.92,3.347" transform="translate(-82.639 -167.146)"/></g></svg>