<?xml version="1.0" encoding="UTF-8" standalone="no"?><!-- Generator: Gravit.io --><svg xmlns="http://www.w3.org/2000/svg" xmlns:xlink="http://www.w3.org/1999/xlink" style="isolation:isolate" viewBox="821.5 371.738 227 256.523" width="227pt" height="256.523pt"><defs><clipPath id="_clipPath_ctpbjktM1z8kwe6mxByeYINRLT7XYvz4"><rect x="821.5" y="371.738" width="227" height="256.523"/></clipPath></defs><g clip-path="url(#_clipPath_ctpbjktM1z8kwe6mxByeYINRLT7XYvz4)"><g><g><circle vector-effect="non-scaling-stroke" cx="934.5000085988557" cy="485.76162967251037" r="62" fill="rgb(0,0,0)"/><mask id="_mask_ly94s73Fe4mCHY1w02Gwa1ldZVdBOCWy" x="-200%" y="-200%" width="400%" height="400%"><rect x="-200%" y="-200%" width="400%" height="400%" style="fill:white;"/><path d=" M 986.5 433.762 L 980.5 427.762 C 967.621 417.014 951.268 411.326 934.5 411.762 C 915.169 411.627 896.668 419.608 883.5 433.762 C 869.447 447 861.486 465.455 861.5 484.762 C 861.5 505.762 868.5 522.762 883.5 536.762 L 926.5 583.762 C 932.5 589.762 937.5 589.762 942.5 583.762 L 990.5 532.762 C 996.5 526.262 1001 519.012 1004 511.012 C 1007 503.012 1008.5 494.262 1008.5 484.762 C 1008.5 464.762 1000.5 447.762 986.5 433.762 Z " fill="black" stroke="none"/></mask><path d=" M 986.5 433.762 L 980.5 427.762 C 967.621 417.014 951.268 411.326 934.5 411.762 C 915.169 411.627 896.668 419.608 883.5 433.762 C 869.447 447 861.486 465.455 861.5 484.762 C 861.5 505.762 868.5 522.762 883.5 536.762 L 926.5 583.762 C 932.5 589.762 937.5 589.762 942.5 583.762 L 990.5 532.762 C 996.5 526.262 1001 519.012 1004 511.012 C 1007 503.012 1008.5 494.262 1008.5 484.762 C 1008.5 464.762 1000.5 447.762 986.5 433.762 Z " fill="rgb(115,227,53)" mask="url(#_mask_ly94s73Fe4mCHY1w02Gwa1ldZVdBOCWy)" vector-effect="non-scaling-stroke" stroke-width="8" stroke="rgb(255,255,255)" stroke-linejoin="miter" stroke-linecap="butt" stroke-miterlimit="10"/><path d=" M 986.5 433.762 L 980.5 427.762 C 967.621 417.014 951.268 411.326 934.5 411.762 C 915.169 411.627 896.668 419.608 883.5 433.762 C 869.447 447 861.486 465.455 861.5 484.762 C 861.5 505.762 868.5 522.762 883.5 536.762 L 926.5 583.762 C 932.5 589.762 937.5 589.762 942.5 583.762 L 990.5 532.762 C 996.5 526.262 1001 519.012 1004 511.012 C 1007 503.012 1008.5 494.262 1008.5 484.762 C 1008.5 464.762 1000.5 447.762 986.5 433.762 Z " fill="rgb(115,227,53)"/><circle vector-effect="non-scaling-stroke" cx="934.5000085988557" cy="485.76162967251037" r="48" fill="rgb(255,255,255)"/></g></g><path d=" M 911.9 484.39 C 915.54 484.39 918.5 481.431 918.5 477.79 C 918.5 474.15 915.54 471.19 911.9 471.19 C 908.26 471.19 905.3 474.15 905.3 477.79 C 905.3 481.431 908.26 484.39 911.9 484.39 Z  M 958.1 484.39 C 961.74 484.39 964.7 481.431 964.7 477.79 C 964.7 474.15 961.74 471.19 958.1 471.19 C 954.46 471.19 951.5 474.15 951.5 477.79 C 951.5 481.431 954.46 484.39 958.1 484.39 Z  M 961.4 487.69 L 954.8 487.69 C 952.985 487.69 951.345 488.422 950.149 489.608 C 954.305 491.887 957.254 496.002 957.894 500.89 L 964.7 500.89 C 966.525 500.89 968 499.416 968 497.59 L 968 494.29 C 968 490.65 965.04 487.69 961.4 487.69 Z  M 935 487.69 C 941.383 487.69 946.55 482.524 946.55 476.14 C 946.55 469.757 941.383 464.59 935 464.59 C 928.617 464.59 923.45 469.757 923.45 476.14 C 923.45 482.524 928.617 487.69 935 487.69 Z  M 942.92 490.99 L 942.064 490.99 C 939.919 492.021 937.537 492.64 935 492.64 C 932.463 492.64 930.091 492.021 927.936 490.99 L 927.08 490.99 C 920.521 490.99 915.2 496.311 915.2 502.87 L 915.2 505.84 C 915.2 508.573 917.417 510.79 920.15 510.79 L 949.85 510.79 C 952.583 510.79 954.8 508.573 954.8 505.84 L 954.8 502.87 C 954.8 496.311 949.479 490.99 942.92 490.99 Z  M 919.851 489.608 C 918.655 488.422 917.015 487.69 915.2 487.69 L 908.6 487.69 C 904.96 487.69 902 490.65 902 494.29 L 902 497.59 C 902 499.416 903.475 500.89 905.3 500.89 L 912.096 500.89 C 912.746 496.002 915.695 491.887 919.851 489.608 Z " fill="rgb(0,0,0)"/></g></svg>