<?xml version="1.0" encoding="UTF-8" standalone="no"?><!-- Generator: Gravit.io --><svg xmlns="http://www.w3.org/2000/svg" xmlns:xlink="http://www.w3.org/1999/xlink" style="isolation:isolate" viewBox="821.5 371.738 227 256.523" width="227pt" height="256.523pt"><defs><clipPath id="_clipPath_NFILzNfhDkU2gfJmbXqUCIFucyTHRnRF"><rect x="821.5" y="371.738" width="227" height="256.523"/></clipPath></defs><g clip-path="url(#_clipPath_NFILzNfhDkU2gfJmbXqUCIFucyTHRnRF)"><g><g><circle vector-effect="non-scaling-stroke" cx="934.5000085988557" cy="485.76162967251037" r="62" fill="rgb(0,0,0)"/><mask id="_mask_PrhXJBXHVZcc57oPgWMGCTrXUwjKzeBj" x="-200%" y="-200%" width="400%" height="400%"><rect x="-200%" y="-200%" width="400%" height="400%" style="fill:white;"/><path d=" M 986.5 433.762 L 980.5 427.762 C 967.621 417.014 951.268 411.326 934.5 411.762 C 915.169 411.627 896.668 419.608 883.5 433.762 C 869.447 447 861.486 465.455 861.5 484.762 C 861.5 505.762 868.5 522.762 883.5 536.762 L 926.5 583.762 C 932.5 589.762 937.5 589.762 942.5 583.762 L 990.5 532.762 C 996.5 526.262 1001 519.012 1004 511.012 C 1007 503.012 1008.5 494.262 1008.5 484.762 C 1008.5 464.762 1000.5 447.762 986.5 433.762 Z " fill="black" stroke="none"/></mask><path d=" M 986.5 433.762 L 980.5 427.762 C 967.621 417.014 951.268 411.326 934.5 411.762 C 915.169 411.627 896.668 419.608 883.5 433.762 C 869.447 447 861.486 465.455 861.5 484.762 C 861.5 505.762 868.5 522.762 883.5 536.762 L 926.5 583.762 C 932.5 589.762 937.5 589.762 942.5 583.762 L 990.5 532.762 C 996.5 526.262 1001 519.012 1004 511.012 C 1007 503.012 1008.5 494.262 1008.5 484.762 C 1008.5 464.762 1000.5 447.762 986.5 433.762 Z " fill="rgb(22,219,219)"/><path d=" M 986.5 433.762 L 980.5 427.762 C 967.621 417.014 951.268 411.326 934.5 411.762 C 915.169 411.627 896.668 419.608 883.5 433.762 C 869.447 447 861.486 465.455 861.5 484.762 C 861.5 505.762 868.5 522.762 883.5 536.762 L 926.5 583.762 C 932.5 589.762 937.5 589.762 942.5 583.762 L 990.5 532.762 C 996.5 526.262 1001 519.012 1004 511.012 C 1007 503.012 1008.5 494.262 1008.5 484.762 C 1008.5 464.762 1000.5 447.762 986.5 433.762 Z " fill="rgb(22,219,219)" mask="url(#_mask_PrhXJBXHVZcc57oPgWMGCTrXUwjKzeBj)" vector-effect="non-scaling-stroke" stroke-width="8" stroke="rgb(255,255,255)" stroke-linejoin="miter" stroke-linecap="butt" stroke-miterlimit="10"/><circle vector-effect="non-scaling-stroke" cx="934.5000085988557" cy="484.38081483625535" r="48" fill="rgb(255,255,255)"/></g></g><path d=" M 950.758 471.007 C 948.481 470.963 946.618 472.87 946.618 475.147 L 946.618 484 L 945.806 484 L 945.806 466.112 C 945.806 463.835 943.943 461.929 941.666 461.972 C 939.46 462.014 937.685 463.816 937.685 466.032 L 937.685 484 L 936.873 484 L 936.873 462.153 C 936.873 459.876 935.009 457.97 932.733 458.013 C 930.527 458.055 928.752 459.857 928.752 462.073 L 928.752 484 L 927.939 484 L 927.939 466.214 C 927.939 463.937 926.076 462.03 923.8 462.074 C 921.594 462.116 919.818 463.917 919.818 466.134 L 919.818 490.09 L 916.606 485.672 C 915.287 483.859 912.747 483.458 910.933 484.777 C 909.12 486.096 908.719 488.635 910.038 490.449 L 922.788 507.981 C 923.705 509.242 925.17 509.988 926.729 509.988 L 946.787 509.988 C 949.048 509.988 951.012 508.432 951.53 506.231 L 954.221 494.794 C 954.565 493.331 954.739 491.833 954.739 490.33 L 954.739 475.067 C 954.739 472.851 952.964 471.049 950.758 471.007 L 950.758 471.007 Z " fill="rgb(0,0,0)"/></g></svg>