<?xml version="1.0" encoding="UTF-8" standalone="no"?><!-- Generator: Gravit.io --><svg xmlns="http://www.w3.org/2000/svg" xmlns:xlink="http://www.w3.org/1999/xlink" style="isolation:isolate" viewBox="821.5 371.738 227 256.523" width="227pt" height="256.523pt"><defs><clipPath id="_clipPath_WM0mct2KuRInZzpGEUOAKDCS00UeyKFw"><rect x="821.5" y="371.738" width="227" height="256.523"/></clipPath></defs><g clip-path="url(#_clipPath_WM0mct2KuRInZzpGEUOAKDCS00UeyKFw)"><g><g><circle vector-effect="non-scaling-stroke" cx="934.5000085988557" cy="485.76162967251037" r="62" fill="rgb(0,0,0)"/><mask id="_mask_sEOdLUs31OPmGlWkSdP8Q5FlgvDeLd2n" x="-200%" y="-200%" width="400%" height="400%"><rect x="-200%" y="-200%" width="400%" height="400%" style="fill:white;"/><path d=" M 986.5 433.762 L 980.5 427.762 C 967.621 417.014 951.268 411.326 934.5 411.762 C 915.169 411.627 896.668 419.608 883.5 433.762 C 869.447 447 861.486 465.455 861.5 484.762 C 861.5 505.762 868.5 522.762 883.5 536.762 L 926.5 583.762 C 932.5 589.762 937.5 589.762 942.5 583.762 L 990.5 532.762 C 996.5 526.262 1001 519.012 1004 511.012 C 1007 503.012 1008.5 494.262 1008.5 484.762 C 1008.5 464.762 1000.5 447.762 986.5 433.762 Z " fill="black" stroke="none"/></mask><path d=" M 986.5 433.762 L 980.5 427.762 C 967.621 417.014 951.268 411.326 934.5 411.762 C 915.169 411.627 896.668 419.608 883.5 433.762 C 869.447 447 861.486 465.455 861.5 484.762 C 861.5 505.762 868.5 522.762 883.5 536.762 L 926.5 583.762 C 932.5 589.762 937.5 589.762 942.5 583.762 L 990.5 532.762 C 996.5 526.262 1001 519.012 1004 511.012 C 1007 503.012 1008.5 494.262 1008.5 484.762 C 1008.5 464.762 1000.5 447.762 986.5 433.762 Z " fill="rgb(22,219,219)" mask="url(#_mask_sEOdLUs31OPmGlWkSdP8Q5FlgvDeLd2n)" vector-effect="non-scaling-stroke" stroke-width="8" stroke="rgb(255,255,255)" stroke-linejoin="miter" stroke-linecap="butt" stroke-miterlimit="10"/><path d=" M 986.5 433.762 L 980.5 427.762 C 967.621 417.014 951.268 411.326 934.5 411.762 C 915.169 411.627 896.668 419.608 883.5 433.762 C 869.447 447 861.486 465.455 861.5 484.762 C 861.5 505.762 868.5 522.762 883.5 536.762 L 926.5 583.762 C 932.5 589.762 937.5 589.762 942.5 583.762 L 990.5 532.762 C 996.5 526.262 1001 519.012 1004 511.012 C 1007 503.012 1008.5 494.262 1008.5 484.762 C 1008.5 464.762 1000.5 447.762 986.5 433.762 Z " fill="rgb(22,219,219)"/><circle vector-effect="non-scaling-stroke" cx="934.5000085988557" cy="485.76162967251037" r="48" fill="rgb(255,255,255)"/></g></g><path d=" M 943.082 473.504 C 938.246 473.504 934.253 470.365 928.174 470.365 C 925.922 470.365 923.905 470.761 922.034 471.449 C 922.293 470.772 922.403 470.047 922.357 469.323 C 922.197 466.757 920.094 464.699 917.525 464.595 C 914.638 464.477 912.261 466.783 912.261 469.643 C 912.261 471.36 913.118 472.876 914.427 473.789 L 914.427 508.625 C 914.427 509.821 915.396 510.79 916.592 510.79 L 918.036 510.79 C 919.232 510.79 920.202 509.821 920.202 508.625 L 920.202 500.106 C 922.756 499.018 925.939 498.11 930.528 498.11 C 935.363 498.11 939.356 501.249 945.436 501.249 C 949.782 501.249 953.256 499.779 956.49 497.562 C 957.273 497.025 957.739 496.134 957.739 495.184 L 957.739 473.248 C 957.739 471.137 955.549 469.74 953.635 470.629 C 950.536 472.069 946.736 473.504 943.082 473.504 L 943.082 473.504 Z " fill="rgb(0,0,0)"/></g></svg>