<?xml version="1.0" encoding="UTF-8" standalone="no"?><!-- Generator: Gravit.io --><svg xmlns="http://www.w3.org/2000/svg" xmlns:xlink="http://www.w3.org/1999/xlink" style="isolation:isolate" viewBox="821.5 371.738 227 256.523" width="227pt" height="256.523pt"><defs><clipPath id="_clipPath_NU2qht7YOkDHq94VuYYT2ZH5S6eDrYdp"><rect x="821.5" y="371.738" width="227" height="256.523"/></clipPath></defs><g clip-path="url(#_clipPath_NU2qht7YOkDHq94VuYYT2ZH5S6eDrYdp)"><g><g><circle vector-effect="non-scaling-stroke" cx="934.5000085988557" cy="485.76162967251037" r="62" fill="rgb(0,0,0)"/><mask id="_mask_Wp8p4c0OHGZTzCEba5eX6RoA8Db8auub" x="-200%" y="-200%" width="400%" height="400%"><rect x="-200%" y="-200%" width="400%" height="400%" style="fill:white;"/><path d=" M 986.5 433.762 L 980.5 427.762 C 967.621 417.014 951.268 411.326 934.5 411.762 C 915.169 411.627 896.668 419.608 883.5 433.762 C 869.447 447 861.486 465.455 861.5 484.762 C 861.5 505.762 868.5 522.762 883.5 536.762 L 926.5 583.762 C 932.5 589.762 937.5 589.762 942.5 583.762 L 990.5 532.762 C 996.5 526.262 1001 519.012 1004 511.012 C 1007 503.012 1008.5 494.262 1008.5 484.762 C 1008.5 464.762 1000.5 447.762 986.5 433.762 Z " fill="black" stroke="none"/></mask><path d=" M 986.5 433.762 L 980.5 427.762 C 967.621 417.014 951.268 411.326 934.5 411.762 C 915.169 411.627 896.668 419.608 883.5 433.762 C 869.447 447 861.486 465.455 861.5 484.762 C 861.5 505.762 868.5 522.762 883.5 536.762 L 926.5 583.762 C 932.5 589.762 937.5 589.762 942.5 583.762 L 990.5 532.762 C 996.5 526.262 1001 519.012 1004 511.012 C 1007 503.012 1008.5 494.262 1008.5 484.762 C 1008.5 464.762 1000.5 447.762 986.5 433.762 Z " fill="rgb(73,250,252)" mask="url(#_mask_Wp8p4c0OHGZTzCEba5eX6RoA8Db8auub)" vector-effect="non-scaling-stroke" stroke-width="8" stroke="rgb(255,255,255)" stroke-linejoin="miter" stroke-linecap="butt" stroke-miterlimit="10"/><path d=" M 986.5 433.762 L 980.5 427.762 C 967.621 417.014 951.268 411.326 934.5 411.762 C 915.169 411.627 896.668 419.608 883.5 433.762 C 869.447 447 861.486 465.455 861.5 484.762 C 861.5 505.762 868.5 522.762 883.5 536.762 L 926.5 583.762 C 932.5 589.762 937.5 589.762 942.5 583.762 L 990.5 532.762 C 996.5 526.262 1001 519.012 1004 511.012 C 1007 503.012 1008.5 494.262 1008.5 484.762 C 1008.5 464.762 1000.5 447.762 986.5 433.762 Z " fill="rgb(73,250,252)"/><circle vector-effect="non-scaling-stroke" cx="934.5000085988557" cy="485.76162967251037" r="48" fill="rgb(255,255,255)"/></g></g><path d=" M 957.531 480.129 L 940.633 480.129 L 940.633 463.231 C 940.633 461.157 938.951 459.476 936.878 459.476 L 933.122 459.476 C 931.049 459.476 929.367 461.157 929.367 463.231 L 929.367 480.129 L 912.469 480.129 C 910.396 480.129 908.714 481.811 908.714 483.884 L 908.714 487.639 C 908.714 489.713 910.396 491.394 912.469 491.394 L 929.367 491.394 L 929.367 508.292 C 929.367 510.366 931.049 512.047 933.122 512.047 L 936.878 512.047 C 938.951 512.047 940.633 510.366 940.633 508.292 L 940.633 491.394 L 957.531 491.394 C 959.604 491.394 961.286 489.713 961.286 487.639 L 961.286 483.884 C 961.286 481.811 959.604 480.129 957.531 480.129 Z " fill="rgb(0,0,0)"/></g></svg>