<?xml version="1.0" encoding="UTF-8" standalone="no"?><!-- Generator: Gravit.io --><svg xmlns="http://www.w3.org/2000/svg" xmlns:xlink="http://www.w3.org/1999/xlink" style="isolation:isolate" viewBox="821.5 371.738 227 256.523" width="227pt" height="256.523pt"><defs><clipPath id="_clipPath_sc9l0gbpobDPeWDz0IlzSmLMWHJDIlF9"><rect x="821.5" y="371.738" width="227" height="256.523"/></clipPath></defs><g clip-path="url(#_clipPath_sc9l0gbpobDPeWDz0IlzSmLMWHJDIlF9)"><g><g><circle vector-effect="non-scaling-stroke" cx="934.5000085988557" cy="485.76162967251037" r="62" fill="rgb(0,0,0)"/><mask id="_mask_uo8gwenSQu1ovKNWF4IUqfE7Epo5fsJc" x="-200%" y="-200%" width="400%" height="400%"><rect x="-200%" y="-200%" width="400%" height="400%" style="fill:white;"/><path d=" M 986.5 433.762 L 980.5 427.762 C 967.621 417.014 951.268 411.326 934.5 411.762 C 915.169 411.627 896.668 419.608 883.5 433.762 C 869.447 447 861.486 465.455 861.5 484.762 C 861.5 505.762 868.5 522.762 883.5 536.762 L 926.5 583.762 C 932.5 589.762 937.5 589.762 942.5 583.762 L 990.5 532.762 C 996.5 526.262 1001 519.012 1004 511.012 C 1007 503.012 1008.5 494.262 1008.5 484.762 C 1008.5 464.762 1000.5 447.762 986.5 433.762 Z " fill="black" stroke="none"/></mask><path d=" M 986.5 433.762 L 980.5 427.762 C 967.621 417.014 951.268 411.326 934.5 411.762 C 915.169 411.627 896.668 419.608 883.5 433.762 C 869.447 447 861.486 465.455 861.5 484.762 C 861.5 505.762 868.5 522.762 883.5 536.762 L 926.5 583.762 C 932.5 589.762 937.5 589.762 942.5 583.762 L 990.5 532.762 C 996.5 526.262 1001 519.012 1004 511.012 C 1007 503.012 1008.5 494.262 1008.5 484.762 C 1008.5 464.762 1000.5 447.762 986.5 433.762 Z " fill="rgb(22,219,219)"/><path d=" M 986.5 433.762 L 980.5 427.762 C 967.621 417.014 951.268 411.326 934.5 411.762 C 915.169 411.627 896.668 419.608 883.5 433.762 C 869.447 447 861.486 465.455 861.5 484.762 C 861.5 505.762 868.5 522.762 883.5 536.762 L 926.5 583.762 C 932.5 589.762 937.5 589.762 942.5 583.762 L 990.5 532.762 C 996.5 526.262 1001 519.012 1004 511.012 C 1007 503.012 1008.5 494.262 1008.5 484.762 C 1008.5 464.762 1000.5 447.762 986.5 433.762 Z " fill="rgb(22,219,219)" mask="url(#_mask_uo8gwenSQu1ovKNWF4IUqfE7Epo5fsJc)" vector-effect="non-scaling-stroke" stroke-width="8" stroke="rgb(255,255,255)" stroke-linejoin="miter" stroke-linecap="butt" stroke-miterlimit="10"/><circle vector-effect="non-scaling-stroke" cx="934.5000085988557" cy="484.38081483625535" r="48" fill="rgb(255,255,255)"/></g></g><path d=" M 916.16 455.632 C 914.755 456.053 913.669 457.172 913.29 458.588 C 913.113 459.369 913.113 462.93 913.113 472.096 L 913.113 484.578 L 913.602 486.692 C 915.093 492.41 916.632 494.88 922.012 499.843 L 923.125 500.888 L 923.125 505.026 C 923.074 506.617 923.147 508.209 923.341 509.788 C 923.787 511.035 922.896 510.989 940.029 510.989 L 955.612 510.989 C 955.974 511.03 956.341 510.954 956.657 510.773 C 956.969 510.507 956.874 509.883 956.874 509.883 L 956.874 504.403 C 956.874 498.484 956.874 497.728 955.761 495.637 C 954.71 493.744 953.176 492.162 951.316 491.053 C 949.595 490.105 947.653 489.629 945.688 489.675 C 944.846 489.775 943.994 489.775 943.152 489.675 C 942.773 489.473 944.219 488.984 944.219 488.984 C 946.488 487.53 948.186 485.338 949.026 482.777 C 949.468 481.614 949.651 480.369 949.56 479.128 C 949.649 477.04 949.156 474.968 948.136 473.143 C 946.993 471.179 945.368 469.54 943.414 468.38 C 939.432 466.359 934.6 467.147 931.466 470.328 C 929.159 472.527 927.884 475.595 927.951 478.781 C 927.93 480.87 928.419 482.933 929.376 484.79 C 930.384 486.49 931.769 487.937 933.425 489.017 C 933.425 489.017 934.626 489.45 934.507 489.618 C 932.863 489.93 931.174 489.93 929.529 489.618 C 927.008 488.386 924.836 486.542 923.209 484.255 C 922.008 482.32 922.008 482.141 922.008 469.592 C 921.792 458.067 921.792 458.067 921.359 457.376 C 920.707 456.464 919.758 455.808 918.675 455.519 C 917.852 455.243 916.955 455.283 916.16 455.632 Z " fill="rgb(29,29,27)"/></g></svg>